HIERARCHY
ROOT Hips
{
	OFFSET 0.000000 0.000000 0.000000
	CHANNELS 6 Xposition Yposition Zposition Zrotation Yrotation Xrotation 
	JOINT LeftUpLeg_virtual
	{
		OFFSET 0.000000 0.000000 0.000000
		CHANNELS 3 Zrotation Yrotation Xrotation
		JOINT LeftUpLeg
		{
			OFFSET 10.205400 -3.823500 0.155100
			CHANNELS 3 Zrotation Yrotation Xrotation
			JOINT LeftLeg
			{
				OFFSET 0.708757 -12.982077 0.567790
				CHANNELS 3 Zrotation Yrotation Xrotation
				JOINT LeftFoot
				{
					OFFSET -0.708756 -10.717838 -2.184338
					CHANNELS 3 Zrotation Yrotation Xrotation
					JOINT LeftToeBase
					{
						OFFSET 0.108149 -7.191104 7.560241
						CHANNELS 3 Zrotation Yrotation Xrotation
						End Site
						{
							OFFSET 0.000000 0.000000 0.000000
						}
					}
				}
			}
		}
	}
	JOINT RightUpLeg_virtual
	{
		OFFSET 0.000000 0.000000 0.000000
		CHANNELS 3 Zrotation Yrotation Xrotation
		JOINT RightUpLeg
		{
			OFFSET -10.205400 -3.823500 0.005500
			CHANNELS 3 Zrotation Yrotation Xrotation
			JOINT RightLeg
			{
				OFFSET -0.708756 -12.982134 0.610632
				CHANNELS 3 Zrotation Yrotation Xrotation
				JOINT RightFoot
				{
					OFFSET 0.708754 -10.717769 -1.945823
					CHANNELS 3 Zrotation Yrotation Xrotation
					JOINT RightToeBase
					{
						OFFSET -0.108140 -7.191069 7.372968
						CHANNELS 3 Zrotation Yrotation Xrotation
						End Site
						{
							OFFSET 0.000000 0.000000 0.000000
						}
					}
				}
			}
		}
	}
	JOINT Spine_virtual
	{
		OFFSET 0.000000 0.000000 0.000000
		CHANNELS 3 Zrotation Yrotation Xrotation
		JOINT Spine
		{
			OFFSET 0.000000 6.876099 0.125700
			CHANNELS 3 Zrotation Yrotation Xrotation
			JOINT Spine1
			{
				OFFSET 0.000000 8.022060 0.146608
				CHANNELS 3 Zrotation Yrotation Xrotation
				JOINT Spine2
				{
					OFFSET 0.000000 9.168068 0.167552
					CHANNELS 3 Zrotation Yrotation Xrotation
					JOINT Neck_virtual
					{
						OFFSET 0.000000 0.000000 0.000000
						CHANNELS 3 Zrotation Yrotation Xrotation
						JOINT Neck
						{
							OFFSET 0.000000 10.314075 0.188496
							CHANNELS 3 Zrotation Yrotation Xrotation
							JOINT Head
							{
								OFFSET 0.000000 7.643700 -2.377400
								CHANNELS 3 Zrotation Yrotation Xrotation
								End Site
								{
									OFFSET 0.000000 0.000000 0.000000
								}
							}
						}
					}
					JOINT LeftShoulder_virtual
					{
						OFFSET 0.000000 0.000000 0.000000
						CHANNELS 3 Zrotation Yrotation Xrotation
						JOINT LeftShoulder
						{
							OFFSET 4.392200 8.824978 0.174984
							CHANNELS 3 Zrotation Yrotation Xrotation
							JOINT LeftArm
							{
								OFFSET 8.771219 -2.981674 -0.026999
								CHANNELS 3 Zrotation Yrotation Xrotation
								JOINT LeftForeArm
								{
									OFFSET 8.512804 0.000000 -0.000000
									CHANNELS 3 Zrotation Yrotation Xrotation
									JOINT LeftHand
									{
										OFFSET 18.484802 0.000000 -0.000000
										CHANNELS 3 Zrotation Yrotation Xrotation
										End Site
										{
											OFFSET 0.000000 0.000000 0.000000
										}
									}
								}
							}
						}
					}
					JOINT RightShoulder_virtual
					{
						OFFSET 0.000000 0.000000 0.000000
						CHANNELS 3 Zrotation Yrotation Xrotation
						JOINT RightShoulder
						{
							OFFSET -4.392200 8.824993 0.141379
							CHANNELS 3 Zrotation Yrotation Xrotation
							JOINT RightArm
							{
								OFFSET -8.771282 -2.981682 -0.094208
								CHANNELS 3 Zrotation Yrotation Xrotation
								JOINT RightForeArm
								{
									OFFSET -8.494598 0.000000 0.000000
									CHANNELS 3 Zrotation Yrotation Xrotation
									JOINT RightHand
									{
										OFFSET -18.483803 0.000000 0.000001
										CHANNELS 3 Zrotation Yrotation Xrotation
										End Site
										{
											OFFSET 0.000000 0.000000 0.000000
										}
									}
								}
							}
						}
					}
				}
			}
		}
	}
}
MOTION
Frames: 12
Frame Time: 0.033333
23.192844 36.266941 -15.995271 -179.534473 -54.704938 179.600589 -3.758166 -4.442085 9.171846 -6.398560 -3.889901 -18.605709 13.655248 6.199633 21.413302 -5.961581 -0.670788 8.988526 0.000000 0.000000 0.000000 0.026570 -1.474051 6.659525 -6.706189 11.267700 -29.380120 -11.596492 4.815292 21.950859 14.101348 6.502732 20.285839 0.000000 0.000000 0.000000 -2.267223 -0.340789 -1.526137 2.403190 2.210162 -4.463556 -1.279806 -2.550819 7.311177 -0.017183 -0.137340 -0.018640 -1.482496 -0.426684 9.348109 3.841164 -4.830913 19.883881 0.000000 0.000000 0.000000 0.310528 -0.438563 6.214760 -8.084530 -8.302623 5.701805 -29.088184 11.275544 45.273106 -147.353627 -85.361723 167.528544 0.000000 0.000000 0.000000 -4.258668 1.135035 4.915260 23.027290 10.174389 6.531757 47.288736 -21.592163 29.096387 -163.520207 77.833229 -163.893244 0.000000 0.000000 0.000000 
23.368542 36.304241 -15.328454 179.831600 -52.830793 179.990456 -4.311516 -3.842298 9.485700 -6.976473 -3.157502 -19.428386 13.491388 7.796214 20.628855 -5.483777 -0.566985 9.930414 0.000000 0.000000 0.000000 0.372955 -1.754120 6.887836 -6.803014 10.677244 -29.906554 -11.279712 4.592976 21.063141 13.748116 6.460459 19.644182 0.000000 0.000000 0.000000 -2.674475 -0.238690 -1.002919 2.066149 2.158172 -4.398968 -1.280340 -2.380864 7.348245 0.135221 -0.058500 -0.095364 -1.312328 -0.517761 9.397018 3.920016 -4.556144 19.754418 0.000000 0.000000 0.000000 0.416414 -0.291612 6.251317 -8.073190 -8.480416 5.599333 -28.534893 10.860080 45.879569 -145.890819 -85.618942 166.360937 0.000000 0.000000 0.000000 -4.282818 1.255220 4.994695 22.734483 10.438169 6.389838 47.291861 -21.498550 29.867386 -162.405656 78.118007 -162.834811 0.000000 0.000000 0.000000 
23.541300 36.340672 -14.797949 179.533312 -51.105535 -179.847610 -4.656243 -3.422844 9.856373 -7.172192 -2.943712 -20.156448 13.518592 9.692429 19.905183 -4.875769 -0.428840 10.770334 0.000000 0.000000 0.000000 0.697624 -2.560796 7.219146 -6.606972 10.476752 -29.843767 -10.574826 4.255262 21.300548 12.251619 5.966265 17.210241 0.000000 0.000000 0.000000 -2.905376 -0.214329 -0.640688 1.847599 2.114374 -4.492224 -1.248744 -2.238426 7.395938 0.043855 -0.012792 -0.091550 -1.248916 -0.443789 9.384551 3.807656 -4.403357 19.673954 0.000000 0.000000 0.000000 0.498501 -0.167164 6.191047 -8.065801 -8.564410 5.679039 -27.934336 10.406165 46.434795 -150.008071 -85.841783 170.724608 0.000000 0.000000 0.000000 -4.118788 1.411593 4.978531 22.388540 10.589055 6.412591 47.352035 -21.418247 30.028264 -162.391777 78.182532 -162.857555 0.000000 0.000000 0.000000 
23.743008 36.382294 -14.393554 179.881966 -49.727780 -179.965267 -4.647738 -3.271665 10.012381 -7.141621 -2.990663 -20.899262 13.505989 10.588881 19.367862 -4.143296 -0.237213 11.611923 0.000000 0.000000 0.000000 0.781983 -2.898320 7.764186 -4.178088 5.890105 -28.711018 -9.735681 1.933151 23.298720 11.059710 5.688607 14.169526 0.000000 0.000000 0.000000 -2.858847 -0.285944 -0.504507 1.783790 2.108640 -4.847692 -1.156526 -2.103723 7.410018 -0.015726 0.003596 0.002227 -1.284055 -0.276725 9.374535 3.742395 -4.215218 19.628410 0.000000 0.000000 0.000000 0.353107 -0.077269 6.097519 -8.140687 -8.575659 5.646186 -27.573586 10.012315 46.674367 -152.955598 -86.047946 173.888816 0.000000 0.000000 0.000000 -4.097852 1.501548 4.989183 22.150175 10.625022 6.367423 47.294624 -21.527090 30.118614 -161.172561 78.161256 -161.628736 0.000000 0.000000 0.000000 
23.991137 36.378990 -14.067856 179.993188 -48.859663 -179.973681 -4.642973 -3.611823 10.096340 -7.072483 -3.440310 -21.639813 13.441544 10.743131 19.094380 -3.264266 0.040878 12.361214 0.000000 0.000000 0.000000 0.300183 -2.927622 8.258165 -2.691244 3.777242 -27.237445 -9.205444 0.058475 26.990005 10.348857 5.881584 12.340253 0.000000 0.000000 0.000000 -2.783720 -0.450895 -0.386774 1.620129 2.030997 -5.205554 -1.239390 -2.075238 7.430933 0.024752 -0.007427 -0.017898 -1.330885 -0.179399 9.372428 3.628515 -3.983655 19.568647 0.000000 0.000000 0.000000 0.269149 -0.036306 6.123297 -8.238126 -8.561084 5.666665 -27.439887 9.662130 46.761770 -156.501818 -85.980730 177.604480 0.000000 0.000000 0.000000 -4.148339 1.571520 4.991258 22.015998 10.616153 6.479932 47.350075 -21.585471 29.828324 -160.372855 78.197238 -160.781260 0.000000 0.000000 0.000000 
24.283640 36.356506 -13.775401 -179.918439 -48.024706 179.957753 -4.548625 -3.848051 10.263052 -7.007951 -4.014156 -22.357067 13.317466 10.683010 18.936495 -2.349471 0.356898 12.934664 0.000000 0.000000 0.000000 0.141728 -3.335715 8.422708 -1.808684 2.599967 -25.895709 -8.467215 0.683914 30.615230 10.044312 6.495780 12.666611 0.000000 0.000000 0.000000 -2.697193 -0.704410 -0.306023 1.446771 2.027821 -5.569405 -1.236112 -2.016293 7.430775 -0.003664 -0.023291 0.034346 -1.406008 -0.074362 9.244682 3.506154 -3.961747 19.608006 0.000000 0.000000 0.000000 0.216614 0.113430 6.017651 -8.386479 -8.437300 5.640738 -27.677883 9.480640 46.893842 -158.996354 -86.080983 -179.823486 0.000000 0.000000 0.000000 -4.180086 1.669708 4.869183 22.015204 10.641372 6.547074 47.327231 -21.673508 29.838006 -158.740030 78.209962 -159.063399 0.000000 0.000000 0.000000 
24.628174 36.323357 -13.497244 179.993612 -47.404709 179.956223 -4.514954 -4.067308 10.447049 -6.879247 -4.647700 -23.247900 13.121569 10.417658 18.759668 -1.519705 0.663115 13.811302 0.000000 0.000000 0.000000 0.028941 -3.648592 8.651217 -0.918857 1.339772 -24.118817 -7.953240 0.631758 33.420215 9.558969 6.750264 11.601635 0.000000 0.000000 0.000000 -2.585748 -0.956501 -0.254115 1.220675 2.080560 -5.946990 -1.294468 -1.939543 7.410299 -0.023076 -0.025158 -0.057671 -1.390773 -0.069690 9.234178 3.374259 -3.750418 19.655109 0.000000 0.000000 0.000000 0.209921 0.188436 5.964887 -8.696012 -8.128174 5.598729 -28.037250 9.496885 46.815534 -159.696257 -86.115667 -179.059666 0.000000 0.000000 0.000000 -4.168129 1.759080 4.913545 21.990827 10.713709 6.593095 47.174501 -21.707390 30.005885 -157.999966 78.273326 -158.220663 0.000000 0.000000 0.000000 
25.018826 36.291355 -13.233714 -179.920966 -46.978126 179.934982 -4.328564 -4.202195 10.696883 -6.517293 -5.065794 -24.575724 12.841527 10.140226 18.768663 -0.893423 0.904848 14.846417 0.000000 0.000000 0.000000 0.127429 -3.895618 8.824627 -0.090777 0.083082 -22.030405 -7.506625 0.589331 35.251375 9.140504 7.006322 10.902466 0.000000 0.000000 0.000000 -2.355909 -1.201030 -0.345803 1.070770 2.168663 -6.363109 -1.307956 -1.879379 7.398086 -0.017982 -0.014290 -0.021198 -1.448165 0.003045 9.140271 3.189702 -3.593351 19.679645 0.000000 0.000000 0.000000 0.188033 0.299840 5.862367 -9.059142 -7.841266 5.633949 -28.551943 9.712209 46.581846 -161.435756 -86.219957 -177.361544 0.000000 0.000000 0.000000 -4.201188 1.830761 4.854560 22.049234 10.784127 6.812047 47.015088 -21.522361 30.263137 -157.399961 78.298488 -157.502605 0.000000 0.000000 0.000000 
25.467184 36.264866 -13.003766 179.986249 -46.968363 -179.983285 -4.285925 -4.545879 10.648686 -6.056540 -5.258791 -25.689106 12.493353 9.720207 18.797884 -0.548632 1.060627 15.862949 0.000000 0.000000 0.000000 0.205355 -4.411965 8.965542 0.563400 -1.003826 -19.740251 -6.735131 0.850573 35.850796 9.305046 7.316019 12.243852 0.000000 0.000000 0.000000 -2.208104 -1.348981 -0.418610 0.921709 2.208432 -6.723780 -1.285104 -1.899863 7.397643 -0.024805 -0.091660 0.019553 -1.395112 0.029854 9.062728 3.002210 -3.415840 19.657576 0.000000 0.000000 0.000000 0.197619 0.301663 5.783195 -9.413094 -7.533762 5.686247 -29.024305 10.201367 46.112919 -161.800433 -86.262830 -177.107898 0.000000 0.000000 0.000000 -4.157768 1.895402 4.690346 22.108972 10.792173 6.956622 46.812464 -21.234623 30.560722 -157.284544 78.185155 -157.293943 0.000000 0.000000 0.000000 
25.984032 36.229042 -12.775342 179.984350 -46.891124 -179.962439 -4.108924 -4.730837 10.771038 -5.545485 -4.985433 -27.061331 12.051115 9.462991 18.834861 -0.460011 1.192924 16.908558 0.000000 0.000000 0.000000 0.486685 -4.655491 9.077207 0.860071 -1.875626 -17.268323 -5.793671 1.350462 35.211148 9.930847 8.007187 13.428806 0.000000 0.000000 0.000000 -1.958977 -1.723335 -0.487985 0.850619 2.458979 -7.033001 -1.252634 -1.745733 7.416419 0.000609 0.002011 -0.058987 -1.348787 0.051529 9.105741 2.823729 -3.271774 19.516770 0.000000 0.000000 0.000000 0.233056 0.298260 5.823976 -9.712083 -7.189612 5.616996 -29.417297 10.891021 45.646093 -162.480351 -86.249962 -176.605743 0.000000 0.000000 0.000000 -4.139652 1.913861 4.680688 22.199278 10.808359 7.166574 46.681392 -20.700166 30.773332 -157.284708 78.046270 -157.256705 0.000000 0.000000 0.000000 
26.593048 36.178444 -12.543537 -179.921840 -47.028509 179.892839 -3.842114 -5.184175 10.917404 -4.899189 -4.530057 -28.451315 11.498661 9.229352 18.702113 -0.516439 1.363306 17.988097 0.000000 0.000000 0.000000 0.696284 -5.086304 9.279763 1.135760 -1.630847 -14.870140 -5.002047 1.651745 33.182405 11.056657 8.880435 12.871552 0.000000 0.000000 0.000000 -1.706681 -2.032860 -0.376615 0.844144 2.655112 -7.197776 -1.219374 -1.690027 7.449265 0.018527 -0.020468 0.017952 -1.424597 0.045085 9.022047 2.626338 -3.288661 19.260053 0.000000 0.000000 0.000000 0.201618 0.392365 5.771273 -9.917376 -6.828029 5.628510 -29.718942 11.640726 44.956520 -162.727044 -86.118638 -176.567917 0.000000 0.000000 0.000000 -4.209626 1.882548 4.596646 22.310239 10.971037 7.291225 46.589827 -19.959935 30.902918 -157.733821 77.945429 -157.700954 0.000000 0.000000 0.000000 
27.295670 36.124603 -12.243739 179.982902 -47.137427 179.928192 -3.797874 -5.455425 11.049451 -4.071728 -4.121785 -29.941954 10.868107 9.145377 18.383425 -0.702127 1.467370 19.381555 0.000000 0.000000 0.000000 0.755384 -5.259459 9.504176 1.616075 -1.037511 -12.985539 -3.974799 2.369696 30.557696 11.388937 9.884260 10.087621 0.000000 0.000000 0.000000 -1.567374 -2.300587 -0.154147 0.804062 2.867403 -7.255188 -1.218931 -1.629692 7.484740 -0.043250 -0.022898 0.024043 -1.377775 0.212417 9.002101 2.427894 -3.203972 18.867728 0.000000 0.000000 0.000000 0.239453 0.540699 5.734657 -10.055002 -6.440018 5.657472 -29.920463 12.416239 44.108945 -162.087438 -86.036171 -177.427305 0.000000 0.000000 0.000000 -4.114056 2.110649 4.560839 22.493976 11.075982 7.392025 46.600759 -19.035575 30.999271 -157.256240 77.853952 -157.265147 0.000000 0.000000 0.000000 
